<svg version="1.1" xmlns="http://www.w3.org/2000/svg" xmlns:xlink="http://www.w3.org/1999/xlink" width="860" height="556"><defs/><g><text fill="#eeeeee" stroke="none" font-family="Arial" font-size="24px" font-style="normal" font-weight="normal" text-decoration="none" x="0" y="0">UNREGISTERED</text><text fill="#eeeeee" stroke="none" font-family="Arial" font-size="24px" font-style="normal" font-weight="normal" text-decoration="none" x="0" y="30">UNREGISTERED</text><text fill="#eeeeee" stroke="none" font-family="Arial" font-size="24px" font-style="normal" font-weight="normal" text-decoration="none" x="0" y="60">UNREGISTERED</text><text fill="#eeeeee" stroke="none" font-family="Arial" font-size="24px" font-style="normal" font-weight="normal" text-decoration="none" x="0" y="90">UNREGISTERED</text><text fill="#eeeeee" stroke="none" font-family="Arial" font-size="24px" font-style="normal" font-weight="normal" text-decoration="none" x="0" y="120">UNREGISTERED</text><text fill="#eeeeee" stroke="none" font-family="Arial" font-size="24px" font-style="normal" font-weight="normal" text-decoration="none" x="0" y="150">UNREGISTERED</text><text fill="#eeeeee" stroke="none" font-family="Arial" font-size="24px" font-style="normal" font-weight="normal" text-decoration="none" x="0" y="180">UNREGISTERED</text><text fill="#eeeeee" stroke="none" font-family="Arial" font-size="24px" font-style="normal" font-weight="normal" text-decoration="none" x="0" y="210">UNREGISTERED</text><text fill="#eeeeee" stroke="none" font-family="Arial" font-size="24px" font-style="normal" font-weight="normal" text-decoration="none" x="0" y="240">UNREGISTERED</text><text fill="#eeeeee" stroke="none" font-family="Arial" font-size="24px" font-style="normal" font-weight="normal" text-decoration="none" x="0" y="270">UNREGISTERED</text><text fill="#eeeeee" stroke="none" font-family="Arial" font-size="24px" font-style="normal" font-weight="normal" text-decoration="none" x="0" y="300">UNREGISTERED</text><text fill="#eeeeee" stroke="none" font-family="Arial" font-size="24px" font-style="normal" font-weight="normal" text-decoration="none" x="0" y="330">UNREGISTERED</text><text fill="#eeeeee" stroke="none" font-family="Arial" font-size="24px" font-style="normal" font-weight="normal" text-decoration="none" x="0" y="360">UNREGISTERED</text><text fill="#eeeeee" stroke="none" font-family="Arial" font-size="24px" font-style="normal" font-weight="normal" text-decoration="none" x="0" y="390">UNREGISTERED</text><text fill="#eeeeee" stroke="none" font-family="Arial" font-size="24px" font-style="normal" font-weight="normal" text-decoration="none" x="0" y="420">UNREGISTERED</text><text fill="#eeeeee" stroke="none" font-family="Arial" font-size="24px" font-style="normal" font-weight="normal" text-decoration="none" x="0" y="450">UNREGISTERED</text><text fill="#eeeeee" stroke="none" font-family="Arial" font-size="24px" font-style="normal" font-weight="normal" text-decoration="none" x="0" y="480">UNREGISTERED</text><text fill="#eeeeee" stroke="none" font-family="Arial" font-size="24px" font-style="normal" font-weight="normal" text-decoration="none" x="0" y="510">UNREGISTERED</text><text fill="#eeeeee" stroke="none" font-family="Arial" font-size="24px" font-style="normal" font-weight="normal" text-decoration="none" x="0" y="540">UNREGISTERED</text><text fill="#eeeeee" stroke="none" font-family="Arial" font-size="24px" font-style="normal" font-weight="normal" text-decoration="none" x="200" y="0">UNREGISTERED</text><text fill="#eeeeee" stroke="none" font-family="Arial" font-size="24px" font-style="normal" font-weight="normal" text-decoration="none" x="200" y="30">UNREGISTERED</text><text fill="#eeeeee" stroke="none" font-family="Arial" font-size="24px" font-style="normal" font-weight="normal" text-decoration="none" x="200" y="60">UNREGISTERED</text><text fill="#eeeeee" stroke="none" font-family="Arial" font-size="24px" font-style="normal" font-weight="normal" text-decoration="none" x="200" y="90">UNREGISTERED</text><text fill="#eeeeee" stroke="none" font-family="Arial" font-size="24px" font-style="normal" font-weight="normal" text-decoration="none" x="200" y="120">UNREGISTERED</text><text fill="#eeeeee" stroke="none" font-family="Arial" font-size="24px" font-style="normal" font-weight="normal" text-decoration="none" x="200" y="150">UNREGISTERED</text><text fill="#eeeeee" stroke="none" font-family="Arial" font-size="24px" font-style="normal" font-weight="normal" text-decoration="none" x="200" y="180">UNREGISTERED</text><text fill="#eeeeee" stroke="none" font-family="Arial" font-size="24px" font-style="normal" font-weight="normal" text-decoration="none" x="200" y="210">UNREGISTERED</text><text fill="#eeeeee" stroke="none" font-family="Arial" font-size="24px" font-style="normal" font-weight="normal" text-decoration="none" x="200" y="240">UNREGISTERED</text><text fill="#eeeeee" stroke="none" font-family="Arial" font-size="24px" font-style="normal" font-weight="normal" text-decoration="none" x="200" y="270">UNREGISTERED</text><text fill="#eeeeee" stroke="none" font-family="Arial" font-size="24px" font-style="normal" font-weight="normal" text-decoration="none" x="200" y="300">UNREGISTERED</text><text fill="#eeeeee" stroke="none" font-family="Arial" font-size="24px" font-style="normal" font-weight="normal" text-decoration="none" x="200" y="330">UNREGISTERED</text><text fill="#eeeeee" stroke="none" font-family="Arial" font-size="24px" font-style="normal" font-weight="normal" text-decoration="none" x="200" y="360">UNREGISTERED</text><text fill="#eeeeee" stroke="none" font-family="Arial" font-size="24px" font-style="normal" font-weight="normal" text-decoration="none" x="200" y="390">UNREGISTERED</text><text fill="#eeeeee" stroke="none" font-family="Arial" font-size="24px" font-style="normal" font-weight="normal" text-decoration="none" x="200" y="420">UNREGISTERED</text><text fill="#eeeeee" stroke="none" font-family="Arial" font-size="24px" font-style="normal" font-weight="normal" text-decoration="none" x="200" y="450">UNREGISTERED</text><text fill="#eeeeee" stroke="none" font-family="Arial" font-size="24px" font-style="normal" font-weight="normal" text-decoration="none" x="200" y="480">UNREGISTERED</text><text fill="#eeeeee" stroke="none" font-family="Arial" font-size="24px" font-style="normal" font-weight="normal" text-decoration="none" x="200" y="510">UNREGISTERED</text><text fill="#eeeeee" stroke="none" font-family="Arial" font-size="24px" font-style="normal" font-weight="normal" text-decoration="none" x="200" y="540">UNREGISTERED</text><text fill="#eeeeee" stroke="none" font-family="Arial" font-size="24px" font-style="normal" font-weight="normal" text-decoration="none" x="400" y="0">UNREGISTERED</text><text fill="#eeeeee" stroke="none" font-family="Arial" font-size="24px" font-style="normal" font-weight="normal" text-decoration="none" x="400" y="30">UNREGISTERED</text><text fill="#eeeeee" stroke="none" font-family="Arial" font-size="24px" font-style="normal" font-weight="normal" text-decoration="none" x="400" y="60">UNREGISTERED</text><text fill="#eeeeee" stroke="none" font-family="Arial" font-size="24px" font-style="normal" font-weight="normal" text-decoration="none" x="400" y="90">UNREGISTERED</text><text fill="#eeeeee" stroke="none" font-family="Arial" font-size="24px" font-style="normal" font-weight="normal" text-decoration="none" x="400" y="120">UNREGISTERED</text><text fill="#eeeeee" stroke="none" font-family="Arial" font-size="24px" font-style="normal" font-weight="normal" text-decoration="none" x="400" y="150">UNREGISTERED</text><text fill="#eeeeee" stroke="none" font-family="Arial" font-size="24px" font-style="normal" font-weight="normal" text-decoration="none" x="400" y="180">UNREGISTERED</text><text fill="#eeeeee" stroke="none" font-family="Arial" font-size="24px" font-style="normal" font-weight="normal" text-decoration="none" x="400" y="210">UNREGISTERED</text><text fill="#eeeeee" stroke="none" font-family="Arial" font-size="24px" font-style="normal" font-weight="normal" text-decoration="none" x="400" y="240">UNREGISTERED</text><text fill="#eeeeee" stroke="none" font-family="Arial" font-size="24px" font-style="normal" font-weight="normal" text-decoration="none" x="400" y="270">UNREGISTERED</text><text fill="#eeeeee" stroke="none" font-family="Arial" font-size="24px" font-style="normal" font-weight="normal" text-decoration="none" x="400" y="300">UNREGISTERED</text><text fill="#eeeeee" stroke="none" font-family="Arial" font-size="24px" font-style="normal" font-weight="normal" text-decoration="none" x="400" y="330">UNREGISTERED</text><text fill="#eeeeee" stroke="none" font-family="Arial" font-size="24px" font-style="normal" font-weight="normal" text-decoration="none" x="400" y="360">UNREGISTERED</text><text fill="#eeeeee" stroke="none" font-family="Arial" font-size="24px" font-style="normal" font-weight="normal" text-decoration="none" x="400" y="390">UNREGISTERED</text><text fill="#eeeeee" stroke="none" font-family="Arial" font-size="24px" font-style="normal" font-weight="normal" text-decoration="none" x="400" y="420">UNREGISTERED</text><text fill="#eeeeee" stroke="none" font-family="Arial" font-size="24px" font-style="normal" font-weight="normal" text-decoration="none" x="400" y="450">UNREGISTERED</text><text fill="#eeeeee" stroke="none" font-family="Arial" font-size="24px" font-style="normal" font-weight="normal" text-decoration="none" x="400" y="480">UNREGISTERED</text><text fill="#eeeeee" stroke="none" font-family="Arial" font-size="24px" font-style="normal" font-weight="normal" text-decoration="none" x="400" y="510">UNREGISTERED</text><text fill="#eeeeee" stroke="none" font-family="Arial" font-size="24px" font-style="normal" font-weight="normal" text-decoration="none" x="400" y="540">UNREGISTERED</text><text fill="#eeeeee" stroke="none" font-family="Arial" font-size="24px" font-style="normal" font-weight="normal" text-decoration="none" x="600" y="0">UNREGISTERED</text><text fill="#eeeeee" stroke="none" font-family="Arial" font-size="24px" font-style="normal" font-weight="normal" text-decoration="none" x="600" y="30">UNREGISTERED</text><text fill="#eeeeee" stroke="none" font-family="Arial" font-size="24px" font-style="normal" font-weight="normal" text-decoration="none" x="600" y="60">UNREGISTERED</text><text fill="#eeeeee" stroke="none" font-family="Arial" font-size="24px" font-style="normal" font-weight="normal" text-decoration="none" x="600" y="90">UNREGISTERED</text><text fill="#eeeeee" stroke="none" font-family="Arial" font-size="24px" font-style="normal" font-weight="normal" text-decoration="none" x="600" y="120">UNREGISTERED</text><text fill="#eeeeee" stroke="none" font-family="Arial" font-size="24px" font-style="normal" font-weight="normal" text-decoration="none" x="600" y="150">UNREGISTERED</text><text fill="#eeeeee" stroke="none" font-family="Arial" font-size="24px" font-style="normal" font-weight="normal" text-decoration="none" x="600" y="180">UNREGISTERED</text><text fill="#eeeeee" stroke="none" font-family="Arial" font-size="24px" font-style="normal" font-weight="normal" text-decoration="none" x="600" y="210">UNREGISTERED</text><text fill="#eeeeee" stroke="none" font-family="Arial" font-size="24px" font-style="normal" font-weight="normal" text-decoration="none" x="600" y="240">UNREGISTERED</text><text fill="#eeeeee" stroke="none" font-family="Arial" font-size="24px" font-style="normal" font-weight="normal" text-decoration="none" x="600" y="270">UNREGISTERED</text><text fill="#eeeeee" stroke="none" font-family="Arial" font-size="24px" font-style="normal" font-weight="normal" text-decoration="none" x="600" y="300">UNREGISTERED</text><text fill="#eeeeee" stroke="none" font-family="Arial" font-size="24px" font-style="normal" font-weight="normal" text-decoration="none" x="600" y="330">UNREGISTERED</text><text fill="#eeeeee" stroke="none" font-family="Arial" font-size="24px" font-style="normal" font-weight="normal" text-decoration="none" x="600" y="360">UNREGISTERED</text><text fill="#eeeeee" stroke="none" font-family="Arial" font-size="24px" font-style="normal" font-weight="normal" text-decoration="none" x="600" y="390">UNREGISTERED</text><text fill="#eeeeee" stroke="none" font-family="Arial" font-size="24px" font-style="normal" font-weight="normal" text-decoration="none" x="600" y="420">UNREGISTERED</text><text fill="#eeeeee" stroke="none" font-family="Arial" font-size="24px" font-style="normal" font-weight="normal" text-decoration="none" x="600" y="450">UNREGISTERED</text><text fill="#eeeeee" stroke="none" font-family="Arial" font-size="24px" font-style="normal" font-weight="normal" text-decoration="none" x="600" y="480">UNREGISTERED</text><text fill="#eeeeee" stroke="none" font-family="Arial" font-size="24px" font-style="normal" font-weight="normal" text-decoration="none" x="600" y="510">UNREGISTERED</text><text fill="#eeeeee" stroke="none" font-family="Arial" font-size="24px" font-style="normal" font-weight="normal" text-decoration="none" x="600" y="540">UNREGISTERED</text><text fill="#eeeeee" stroke="none" font-family="Arial" font-size="24px" font-style="normal" font-weight="normal" text-decoration="none" x="800" y="0">UNREGISTERED</text><text fill="#eeeeee" stroke="none" font-family="Arial" font-size="24px" font-style="normal" font-weight="normal" text-decoration="none" x="800" y="30">UNREGISTERED</text><text fill="#eeeeee" stroke="none" font-family="Arial" font-size="24px" font-style="normal" font-weight="normal" text-decoration="none" x="800" y="60">UNREGISTERED</text><text fill="#eeeeee" stroke="none" font-family="Arial" font-size="24px" font-style="normal" font-weight="normal" text-decoration="none" x="800" y="90">UNREGISTERED</text><text fill="#eeeeee" stroke="none" font-family="Arial" font-size="24px" font-style="normal" font-weight="normal" text-decoration="none" x="800" y="120">UNREGISTERED</text><text fill="#eeeeee" stroke="none" font-family="Arial" font-size="24px" font-style="normal" font-weight="normal" text-decoration="none" x="800" y="150">UNREGISTERED</text><text fill="#eeeeee" stroke="none" font-family="Arial" font-size="24px" font-style="normal" font-weight="normal" text-decoration="none" x="800" y="180">UNREGISTERED</text><text fill="#eeeeee" stroke="none" font-family="Arial" font-size="24px" font-style="normal" font-weight="normal" text-decoration="none" x="800" y="210">UNREGISTERED</text><text fill="#eeeeee" stroke="none" font-family="Arial" font-size="24px" font-style="normal" font-weight="normal" text-decoration="none" x="800" y="240">UNREGISTERED</text><text fill="#eeeeee" stroke="none" font-family="Arial" font-size="24px" font-style="normal" font-weight="normal" text-decoration="none" x="800" y="270">UNREGISTERED</text><text fill="#eeeeee" stroke="none" font-family="Arial" font-size="24px" font-style="normal" font-weight="normal" text-decoration="none" x="800" y="300">UNREGISTERED</text><text fill="#eeeeee" stroke="none" font-family="Arial" font-size="24px" font-style="normal" font-weight="normal" text-decoration="none" x="800" y="330">UNREGISTERED</text><text fill="#eeeeee" stroke="none" font-family="Arial" font-size="24px" font-style="normal" font-weight="normal" text-decoration="none" x="800" y="360">UNREGISTERED</text><text fill="#eeeeee" stroke="none" font-family="Arial" font-size="24px" font-style="normal" font-weight="normal" text-decoration="none" x="800" y="390">UNREGISTERED</text><text fill="#eeeeee" stroke="none" font-family="Arial" font-size="24px" font-style="normal" font-weight="normal" text-decoration="none" x="800" y="420">UNREGISTERED</text><text fill="#eeeeee" stroke="none" font-family="Arial" font-size="24px" font-style="normal" font-weight="normal" text-decoration="none" x="800" y="450">UNREGISTERED</text><text fill="#eeeeee" stroke="none" font-family="Arial" font-size="24px" font-style="normal" font-weight="normal" text-decoration="none" x="800" y="480">UNREGISTERED</text><text fill="#eeeeee" stroke="none" font-family="Arial" font-size="24px" font-style="normal" font-weight="normal" text-decoration="none" x="800" y="510">UNREGISTERED</text><text fill="#eeeeee" stroke="none" font-family="Arial" font-size="24px" font-style="normal" font-weight="normal" text-decoration="none" x="800" y="540">UNREGISTERED</text><g transform="translate(-158,-78) scale(1,1)"><path fill="#C0C0C0" stroke="none" d="M 791 265 L 1004 265 L 1004 430 L 791 430" opacity="0.2"/></g><g transform="translate(-158,-78) scale(1,1)"><path fill="#C0C0C0" stroke="none" d="M 791 265 L 801 255 L 1014 255 L 1004 265" opacity="0.2"/></g><g transform="translate(-158,-78) scale(1,1)"><path fill="#C0C0C0" stroke="none" d="M 1014 255 L 1004 265 L 1004 430 L 1014 420" opacity="0.2"/></g><g transform="translate(-158,-78) scale(1,1)"><path fill="#ffffff" stroke="none" d="M 784 258 L 997 258 L 997 423 L 784 423"/></g><g transform="translate(-158,-78) scale(1,1)"><path fill="#ffffff" stroke="none" d="M 784 258 L 794 248 L 1007 248 L 997 258"/></g><g transform="translate(-158,-78) scale(1,1)"><path fill="#ffffff" stroke="none" d="M 1007 248 L 997 258 L 997 423 L 1007 413"/></g><g transform="translate(-158,-78) scale(1,1)"><path fill="none" stroke="#000000" d="M 784 258 L 997 258 L 997 423 L 784 423 L 784 258" stroke-miterlimit="10"/></g><g transform="translate(-158,-78) scale(1,1)"><path fill="none" stroke="#000000" d="M 784 258 L 794 248 L 1007 248 L 997 258 L 784 258" stroke-miterlimit="10"/></g><g transform="translate(-158,-78) scale(1,1)"><path fill="none" stroke="#000000" d="M 1007 248 L 997 258 L 997 423 L 1007 413 L 1007 248" stroke-miterlimit="10"/></g><g transform="translate(-158,-78) scale(1,1)"><g><path fill="none" stroke="none"/><text fill="#000000" stroke="none" font-family="Arial" font-size="13px" font-style="normal" font-weight="normal" text-decoration="none" x="863.90185546875" y="274">«Device»</text></g></g><g transform="translate(-158,-78) scale(1,1)"><g><path fill="none" stroke="none"/><text fill="#000000" stroke="none" font-family="Arial" font-size="13px" font-style="normal" font-weight="bold" text-decoration="none" x="864.74609375" y="289">Ноутбук</text></g></g><g transform="translate(-158,-78) scale(1,1)"><path fill="#C0C0C0" stroke="none" d="M 767 481 L 988 481 L 988 582 L 767 582" opacity="0.2"/></g><g transform="translate(-158,-78) scale(1,1)"><path fill="#C0C0C0" stroke="none" d="M 767 481 L 777 471 L 998 471 L 988 481" opacity="0.2"/></g><g transform="translate(-158,-78) scale(1,1)"><path fill="#C0C0C0" stroke="none" d="M 998 471 L 988 481 L 988 582 L 998 572" opacity="0.2"/></g><g transform="translate(-158,-78) scale(1,1)"><path fill="#ffffff" stroke="none" d="M 760 474 L 981 474 L 981 575 L 760 575"/></g><g transform="translate(-158,-78) scale(1,1)"><path fill="#ffffff" stroke="none" d="M 760 474 L 770 464 L 991 464 L 981 474"/></g><g transform="translate(-158,-78) scale(1,1)"><path fill="#ffffff" stroke="none" d="M 991 464 L 981 474 L 981 575 L 991 565"/></g><g transform="translate(-158,-78) scale(1,1)"><path fill="none" stroke="#000000" d="M 760 474 L 981 474 L 981 575 L 760 575 L 760 474" stroke-miterlimit="10"/></g><g transform="translate(-158,-78) scale(1,1)"><path fill="none" stroke="#000000" d="M 760 474 L 770 464 L 991 464 L 981 474 L 760 474" stroke-miterlimit="10"/></g><g transform="translate(-158,-78) scale(1,1)"><path fill="none" stroke="#000000" d="M 991 464 L 981 474 L 981 575 L 991 565 L 991 464" stroke-miterlimit="10"/></g><g transform="translate(-158,-78) scale(1,1)"><g><path fill="none" stroke="none"/><text fill="#000000" stroke="none" font-family="Arial" font-size="13px" font-style="normal" font-weight="normal" text-decoration="none" x="843.90185546875" y="490">«Device»</text></g></g><g transform="translate(-158,-78) scale(1,1)"><g><path fill="none" stroke="none"/><text fill="#000000" stroke="none" font-family="Arial" font-size="13px" font-style="normal" font-weight="bold" text-decoration="none" x="842.58154296875" y="505">Телефон</text></g></g><g transform="translate(-158,-78) scale(1,1)"><path fill="#C0C0C0" stroke="none" d="M 447 217 L 652 217 L 652 630 L 447 630" opacity="0.2"/></g><g transform="translate(-158,-78) scale(1,1)"><path fill="#C0C0C0" stroke="none" d="M 447 217 L 457 207 L 662 207 L 652 217" opacity="0.2"/></g><g transform="translate(-158,-78) scale(1,1)"><path fill="#C0C0C0" stroke="none" d="M 662 207 L 652 217 L 652 630 L 662 620" opacity="0.2"/></g><g transform="translate(-158,-78) scale(1,1)"><path fill="#ffffff" stroke="none" d="M 440 210 L 645 210 L 645 623 L 440 623"/></g><g transform="translate(-158,-78) scale(1,1)"><path fill="#ffffff" stroke="none" d="M 440 210 L 450 200 L 655 200 L 645 210"/></g><g transform="translate(-158,-78) scale(1,1)"><path fill="#ffffff" stroke="none" d="M 655 200 L 645 210 L 645 623 L 655 613"/></g><g transform="translate(-158,-78) scale(1,1)"><path fill="none" stroke="#000000" d="M 440 210 L 645 210 L 645 623 L 440 623 L 440 210" stroke-miterlimit="10"/></g><g transform="translate(-158,-78) scale(1,1)"><path fill="none" stroke="#000000" d="M 440 210 L 450 200 L 655 200 L 645 210 L 440 210" stroke-miterlimit="10"/></g><g transform="translate(-158,-78) scale(1,1)"><path fill="none" stroke="#000000" d="M 655 200 L 645 210 L 645 623 L 655 613 L 655 200" stroke-miterlimit="10"/></g><g transform="translate(-158,-78) scale(1,1)"><g><path fill="none" stroke="none"/><text fill="#000000" stroke="none" font-family="Arial" font-size="13px" font-style="normal" font-weight="normal" text-decoration="none" x="515.90185546875" y="226">«Device»</text></g></g><g transform="translate(-158,-78) scale(1,1)"><g><path fill="none" stroke="none"/><text fill="#000000" stroke="none" font-family="Arial" font-size="13px" font-style="normal" font-weight="bold" text-decoration="none" x="477.54296875" y="241">Сервер приложений</text></g></g><g transform="translate(-158,-78) scale(1,1)"><rect fill="#C0C0C0" stroke="none" x="801" y="519" width="175.66650390625" height="44" opacity="0.2"/></g><g transform="translate(-158,-78) scale(1,1)"><rect fill="#ffffff" stroke="none" x="794" y="512" width="175.66650390625" height="44"/></g><g transform="translate(-158,-78) scale(1,1)"><path fill="none" stroke="#000000" d="M 794 512 L 969.66650390625 512 L 969.66650390625 556 L 794 556 L 794 512 Z Z" stroke-miterlimit="10"/></g><g transform="translate(-158,-78) scale(1,1)"><rect fill="#ffffff" stroke="none" x="784" y="519" width="20" height="10"/></g><g transform="translate(-158,-78) scale(1,1)"><path fill="none" stroke="#000000" d="M 784 519 L 804 519 L 804 529 L 784 529 L 784 519 Z Z" stroke-miterlimit="10"/></g><g transform="translate(-158,-78) scale(1,1)"><rect fill="#ffffff" stroke="none" x="784" y="539" width="20" height="10"/></g><g transform="translate(-158,-78) scale(1,1)"><path fill="none" stroke="#000000" d="M 784 539 L 804 539 L 804 549 L 784 549 L 784 539 Z Z" stroke-miterlimit="10"/></g><g transform="translate(-158,-78) scale(1,1)"><g><path fill="none" stroke="none"/><text fill="#000000" stroke="none" font-family="Arial" font-size="13px" font-style="normal" font-weight="bold" text-decoration="none" x="808.5" y="530">Мобильное приложение</text></g></g><g transform="translate(-158,-78) scale(1,1)"><path fill="#C0C0C0" stroke="none" d="M 815 329 L 976.13720703125 329 L 976.13720703125 422 L 815 422" opacity="0.2"/></g><g transform="translate(-158,-78) scale(1,1)"><path fill="#C0C0C0" stroke="none" d="M 815 329 L 825 319 L 986.13720703125 319 L 976.13720703125 329" opacity="0.2"/></g><g transform="translate(-158,-78) scale(1,1)"><path fill="#C0C0C0" stroke="none" d="M 986.13720703125 319 L 976.13720703125 329 L 976.13720703125 422 L 986.13720703125 412" opacity="0.2"/></g><g transform="translate(-158,-78) scale(1,1)"><path fill="#ffffff" stroke="none" d="M 808 322 L 969.13720703125 322 L 969.13720703125 415 L 808 415"/></g><g transform="translate(-158,-78) scale(1,1)"><path fill="#ffffff" stroke="none" d="M 808 322 L 818 312 L 979.13720703125 312 L 969.13720703125 322"/></g><g transform="translate(-158,-78) scale(1,1)"><path fill="#ffffff" stroke="none" d="M 979.13720703125 312 L 969.13720703125 322 L 969.13720703125 415 L 979.13720703125 405"/></g><g transform="translate(-158,-78) scale(1,1)"><path fill="none" stroke="#000000" d="M 808 322 L 969.13720703125 322 L 969.13720703125 415 L 808 415 L 808 322" stroke-miterlimit="10"/></g><g transform="translate(-158,-78) scale(1,1)"><path fill="none" stroke="#000000" d="M 808 322 L 818 312 L 979.13720703125 312 L 969.13720703125 322 L 808 322" stroke-miterlimit="10"/></g><g transform="translate(-158,-78) scale(1,1)"><path fill="none" stroke="#000000" d="M 979.13720703125 312 L 969.13720703125 322 L 969.13720703125 415 L 979.13720703125 405 L 979.13720703125 312" stroke-miterlimit="10"/></g><g transform="translate(-158,-78) scale(1,1)"><g><path fill="none" stroke="none"/><text fill="#000000" stroke="none" font-family="Arial" font-size="13px" font-style="normal" font-weight="normal" text-decoration="none" x="814.997802734375" y="338">«Execution Environment»</text></g></g><g transform="translate(-158,-78) scale(1,1)"><g><path fill="none" stroke="none"/><text fill="#000000" stroke="none" font-family="Arial" font-size="13px" font-style="normal" font-weight="bold" text-decoration="none" x="812.5" y="353">Google Chrome Browser</text></g></g><g transform="translate(-158,-78) scale(1,1)"><path fill="#C0C0C0" stroke="none" d="M 463 289 L 619.1416015625 289 L 619.1416015625 398 L 463 398" opacity="0.2"/></g><g transform="translate(-158,-78) scale(1,1)"><path fill="#C0C0C0" stroke="none" d="M 463 289 L 473 279 L 629.1416015625 279 L 619.1416015625 289" opacity="0.2"/></g><g transform="translate(-158,-78) scale(1,1)"><path fill="#C0C0C0" stroke="none" d="M 629.1416015625 279 L 619.1416015625 289 L 619.1416015625 398 L 629.1416015625 388" opacity="0.2"/></g><g transform="translate(-158,-78) scale(1,1)"><path fill="#ffffff" stroke="none" d="M 456 282 L 612.1416015625 282 L 612.1416015625 391 L 456 391"/></g><g transform="translate(-158,-78) scale(1,1)"><path fill="#ffffff" stroke="none" d="M 456 282 L 466 272 L 622.1416015625 272 L 612.1416015625 282"/></g><g transform="translate(-158,-78) scale(1,1)"><path fill="#ffffff" stroke="none" d="M 622.1416015625 272 L 612.1416015625 282 L 612.1416015625 391 L 622.1416015625 381"/></g><g transform="translate(-158,-78) scale(1,1)"><path fill="none" stroke="#000000" d="M 456 282 L 612.1416015625 282 L 612.1416015625 391 L 456 391 L 456 282" stroke-miterlimit="10"/></g><g transform="translate(-158,-78) scale(1,1)"><path fill="none" stroke="#000000" d="M 456 282 L 466 272 L 622.1416015625 272 L 612.1416015625 282 L 456 282" stroke-miterlimit="10"/></g><g transform="translate(-158,-78) scale(1,1)"><path fill="none" stroke="#000000" d="M 622.1416015625 272 L 612.1416015625 282 L 612.1416015625 391 L 622.1416015625 381 L 622.1416015625 272" stroke-miterlimit="10"/></g><g transform="translate(-158,-78) scale(1,1)"><g><path fill="none" stroke="none"/><text fill="#000000" stroke="none" font-family="Arial" font-size="13px" font-style="normal" font-weight="normal" text-decoration="none" x="460.5" y="298">«Execution Environment»</text></g></g><g transform="translate(-158,-78) scale(1,1)"><g><path fill="none" stroke="none"/><text fill="#000000" stroke="none" font-family="Arial" font-size="13px" font-style="normal" font-weight="bold" text-decoration="none" x="507.469482421875" y="313"> Express</text></g></g><g transform="translate(-158,-78) scale(1,1)"><path fill="#C0C0C0" stroke="none" d="M 463 465 L 620 465 L 620 614 L 463 614" opacity="0.2"/></g><g transform="translate(-158,-78) scale(1,1)"><path fill="#C0C0C0" stroke="none" d="M 463 465 L 473 455 L 630 455 L 620 465" opacity="0.2"/></g><g transform="translate(-158,-78) scale(1,1)"><path fill="#C0C0C0" stroke="none" d="M 630 455 L 620 465 L 620 614 L 630 604" opacity="0.2"/></g><g transform="translate(-158,-78) scale(1,1)"><path fill="#ffffff" stroke="none" d="M 456 458 L 613 458 L 613 607 L 456 607"/></g><g transform="translate(-158,-78) scale(1,1)"><path fill="#ffffff" stroke="none" d="M 456 458 L 466 448 L 623 448 L 613 458"/></g><g transform="translate(-158,-78) scale(1,1)"><path fill="#ffffff" stroke="none" d="M 623 448 L 613 458 L 613 607 L 623 597"/></g><g transform="translate(-158,-78) scale(1,1)"><path fill="none" stroke="#000000" d="M 456 458 L 613 458 L 613 607 L 456 607 L 456 458" stroke-miterlimit="10"/></g><g transform="translate(-158,-78) scale(1,1)"><path fill="none" stroke="#000000" d="M 456 458 L 466 448 L 623 448 L 613 458 L 456 458" stroke-miterlimit="10"/></g><g transform="translate(-158,-78) scale(1,1)"><path fill="none" stroke="#000000" d="M 623 448 L 613 458 L 613 607 L 623 597 L 623 448" stroke-miterlimit="10"/></g><g transform="translate(-158,-78) scale(1,1)"><g><path fill="none" stroke="none"/><text fill="#000000" stroke="none" font-family="Arial" font-size="13px" font-style="normal" font-weight="normal" text-decoration="none" x="460.92919921875" y="474">«Execution Environment»</text></g></g><g transform="translate(-158,-78) scale(1,1)"><g><path fill="none" stroke="none"/><text fill="#000000" stroke="none" font-family="Arial" font-size="13px" font-style="normal" font-weight="bold" text-decoration="none" x="511.523193359375" y="489">Node.js</text></g></g><g transform="translate(-158,-78) scale(1,1)"><path fill="#C0C0C0" stroke="none" d="M 336.403173828125 95 L 363.843173828125 95 L 375.60317382812497 106.75999999999999 L 375.60317382812497 144 L 336.403173828125 144" opacity="0.2"/></g><g transform="translate(-158,-78) scale(1,1)"><path fill="#ffffff" stroke="none" d="M 329.403173828125 88 L 356.84317382812503 88 L 368.603173828125 99.76000000000002 L 368.603173828125 137 L 329.403173828125 137"/></g><g transform="translate(-158,-78) scale(1,1)"><path fill="none" stroke="#000000" d="M 329.403173828125 88 L 356.84317382812503 88 L 368.603173828125 99.76000000000002 L 368.603173828125 137 L 329.403173828125 137 L 329.403173828125 88" stroke-miterlimit="10"/></g><g transform="translate(-158,-78) scale(1,1)"><path fill="none" stroke="#000000" d="M 356.84317382812503 88 L 356.84317382812503 99.76000000000002 L 368.603173828125 99.76000000000002 L 356.84317382812503 88" stroke-miterlimit="10"/></g><g transform="translate(-158,-78) scale(1,1)"><g><path fill="none" stroke="none"/><text fill="#000000" stroke="none" font-family="Arial" font-size="13px" font-style="normal" font-weight="bold" text-decoration="none" x="316.5" y="155">index.html</text></g></g><g transform="translate(-158,-78) scale(1,1)"><path fill="none" stroke="#000000" d="M 384 163 L 483 271" stroke-miterlimit="10" stroke-dasharray="3"/></g><g transform="translate(-158,-78) scale(1,1)"><path fill="none" stroke="#000000" d="M 473.02976686499363 266.3530169751094 L 483 271 L 479.23589374918504 260.6640673312673" stroke-miterlimit="10"/></g><g transform="translate(-158,-78) scale(1,1)"><g><path fill="none" stroke="none"/><text fill="#000000" stroke="none" font-family="Arial" font-size="13px" font-style="normal" font-weight="normal" text-decoration="none" x="428.5" y="201">«deploy»</text></g></g><g transform="translate(-158,-78) scale(1,1)"><path fill="#C0C0C0" stroke="none" d="M 718.7099609375 402.5 C 718.7099609375 396.1487248 723.8586857375 391 730.2099609375 391 C 736.5612361375 391 741.7099609375 396.1487248 741.7099609375 402.5 C 741.7099609375 408.8512752 736.5612361375 414 730.2099609375 414 C 723.8586857375 414 718.7099609375 408.8512752 718.7099609375 402.5 Z" opacity="0.2"/></g><g transform="translate(-158,-78) scale(1,1)"><path fill="none" stroke="#000000" d="M 725.1950010796755 383.71142301881133 A 11.5 11.5 0 0 1 720.8049989203245 406.28857698118867" stroke-miterlimit="10"/></g><g transform="translate(-158,-78) scale(1,1)"><path fill="none" stroke="#000000" d="M 732.0261518036344 387.8740906813413 A 11.5 11.5 0 0 1 713.9738481963656 402.1259093186587" stroke-miterlimit="10"/></g><g transform="translate(-158,-78) scale(1,1)"><path fill="#ffffff" stroke="none" d="M 714.7099609375 395.5 C 714.7099609375 390.8055792 718.5155401375 387 723.2099609375 387 C 727.9043817375 387 731.7099609375 390.8055792 731.7099609375 395.5 C 731.7099609375 400.1944208 727.9043817375 404 723.2099609375 404 C 718.5155401375 404 714.7099609375 400.1944208 714.7099609375 395.5 Z"/></g><g transform="translate(-158,-78) scale(1,1)"><path fill="none" stroke="#000000" d="M 714.7099609375 395.5 C 714.7099609375 390.8055792 718.5155401375 387 723.2099609375 387 C 727.9043817375 387 731.7099609375 390.8055792 731.7099609375 395.5 C 731.7099609375 400.1944208 727.9043817375 404 723.2099609375 404 C 718.5155401375 404 714.7099609375 400.1944208 714.7099609375 395.5 Z" stroke-miterlimit="10"/></g><g transform="translate(-158,-78) scale(1,1)"><g><path fill="none" stroke="none"/><text fill="#000000" stroke="none" font-family="Arial" font-size="13px" font-style="normal" font-weight="bold" text-decoration="none" x="693.233154296875" y="425">REST API</text></g></g><g transform="translate(-158,-78) scale(1,1)"><rect fill="#C0C0C0" stroke="none" x="849" y="367" width="98.44091796875" height="44" opacity="0.2"/></g><g transform="translate(-158,-78) scale(1,1)"><rect fill="#ffffff" stroke="none" x="842" y="360" width="98.44091796875" height="44"/></g><g transform="translate(-158,-78) scale(1,1)"><path fill="none" stroke="#000000" d="M 842 360 L 940.44091796875 360 L 940.44091796875 404 L 842 404 L 842 360 Z Z" stroke-miterlimit="10"/></g><g transform="translate(-158,-78) scale(1,1)"><rect fill="#ffffff" stroke="none" x="832" y="367" width="20" height="10"/></g><g transform="translate(-158,-78) scale(1,1)"><path fill="none" stroke="#000000" d="M 832 367 L 852 367 L 852 377 L 832 377 L 832 367 Z Z" stroke-miterlimit="10"/></g><g transform="translate(-158,-78) scale(1,1)"><rect fill="#ffffff" stroke="none" x="832" y="387" width="20" height="10"/></g><g transform="translate(-158,-78) scale(1,1)"><path fill="none" stroke="#000000" d="M 832 387 L 852 387 L 852 397 L 832 397 L 832 387 Z Z" stroke-miterlimit="10"/></g><g transform="translate(-158,-78) scale(1,1)"><g><path fill="none" stroke="none"/><text fill="#000000" stroke="none" font-family="Arial" font-size="13px" font-style="normal" font-weight="bold" text-decoration="none" x="863.955322265625" y="378">Фронтенд</text></g></g><g transform="translate(-158,-78) scale(1,1)"><path fill="none" stroke="#000000" d="M 831 391 L 734.7099609375 397.2769368489583" stroke-miterlimit="10"/></g><g transform="translate(-158,-78) scale(1,1)"><path fill="none" stroke="#000000" d="M 848 511 L 732.4736842105264 407" stroke-miterlimit="10"/></g><g transform="translate(-158,-78) scale(1,1)"><path fill="#C0C0C0" stroke="none" d="M 175 225 L 360.80810546875 225 L 360.80810546875 606 L 175 606" opacity="0.2"/></g><g transform="translate(-158,-78) scale(1,1)"><path fill="#C0C0C0" stroke="none" d="M 175 225 L 185 215 L 370.80810546875 215 L 360.80810546875 225" opacity="0.2"/></g><g transform="translate(-158,-78) scale(1,1)"><path fill="#C0C0C0" stroke="none" d="M 370.80810546875 215 L 360.80810546875 225 L 360.80810546875 606 L 370.80810546875 596" opacity="0.2"/></g><g transform="translate(-158,-78) scale(1,1)"><path fill="#ffffff" stroke="none" d="M 168 218 L 353.80810546875 218 L 353.80810546875 599 L 168 599"/></g><g transform="translate(-158,-78) scale(1,1)"><path fill="#ffffff" stroke="none" d="M 168 218 L 178 208 L 363.80810546875 208 L 353.80810546875 218"/></g><g transform="translate(-158,-78) scale(1,1)"><path fill="#ffffff" stroke="none" d="M 363.80810546875 208 L 353.80810546875 218 L 353.80810546875 599 L 363.80810546875 589"/></g><g transform="translate(-158,-78) scale(1,1)"><path fill="none" stroke="#000000" d="M 168 218 L 353.80810546875 218 L 353.80810546875 599 L 168 599 L 168 218" stroke-miterlimit="10"/></g><g transform="translate(-158,-78) scale(1,1)"><path fill="none" stroke="#000000" d="M 168 218 L 178 208 L 363.80810546875 208 L 353.80810546875 218 L 168 218" stroke-miterlimit="10"/></g><g transform="translate(-158,-78) scale(1,1)"><path fill="none" stroke="#000000" d="M 363.80810546875 208 L 353.80810546875 218 L 353.80810546875 599 L 363.80810546875 589 L 363.80810546875 208" stroke-miterlimit="10"/></g><g transform="translate(-158,-78) scale(1,1)"><g><path fill="none" stroke="none"/><text fill="#000000" stroke="none" font-family="Arial" font-size="13px" font-style="normal" font-weight="bold" text-decoration="none" x="232.5" y="236">Database</text></g></g><g transform="translate(-158,-78) scale(1,1)"><rect fill="#C0C0C0" stroke="none" x="209" y="271" width="118" height="64" opacity="0.2"/></g><g transform="translate(-158,-78) scale(1,1)"><rect fill="#ffffff" stroke="none" x="202" y="264" width="118" height="64"/></g><g transform="translate(-158,-78) scale(1,1)"><path fill="none" stroke="#000000" d="M 202 264 L 320 264 L 320 328 L 202 328 L 202 264 Z Z" stroke-miterlimit="10"/></g><g transform="translate(-158,-78) scale(1,1)"><rect fill="#ffffff" stroke="none" x="192" y="271" width="20" height="10"/></g><g transform="translate(-158,-78) scale(1,1)"><path fill="none" stroke="#000000" d="M 192 271 L 212 271 L 212 281 L 192 281 L 192 271 Z Z" stroke-miterlimit="10"/></g><g transform="translate(-158,-78) scale(1,1)"><rect fill="#ffffff" stroke="none" x="192" y="291" width="20" height="10"/></g><g transform="translate(-158,-78) scale(1,1)"><path fill="none" stroke="#000000" d="M 192 291 L 212 291 L 212 301 L 192 301 L 192 291 Z Z" stroke-miterlimit="10"/></g><g transform="translate(-158,-78) scale(1,1)"><g><path fill="none" stroke="none"/><text fill="#000000" stroke="none" font-family="Arial" font-size="13px" font-style="normal" font-weight="bold" text-decoration="none" x="246.858642578125" y="282">MySql</text></g></g><g transform="translate(-158,-78) scale(1,1)"><path fill="none" stroke="#000000" d="M 577 495 L 711.7099609375 405.6628146701389" stroke-miterlimit="10"/></g><g transform="translate(-158,-78) scale(1,1)"><path fill="none" stroke="#000000" d="M 366 407 L 439 409" stroke-miterlimit="10"/></g><g transform="translate(-158,-78) scale(1,1)"><g><path fill="none" stroke="none"/><text fill="#000000" stroke="none" font-family="Arial" font-size="13px" font-style="normal" font-weight="normal" text-decoration="none" x="385.5" y="398">+TCP</text></g></g><g transform="translate(-158,-78) scale(1,1)"><rect fill="#C0C0C0" stroke="none" x="489" y="503" width="110" height="52" opacity="0.2"/></g><g transform="translate(-158,-78) scale(1,1)"><rect fill="#ffffff" stroke="none" x="482" y="496" width="110" height="52"/></g><g transform="translate(-158,-78) scale(1,1)"><path fill="none" stroke="#000000" d="M 482 496 L 592 496 L 592 548 L 482 548 L 482 496 Z Z" stroke-miterlimit="10"/></g><g transform="translate(-158,-78) scale(1,1)"><rect fill="#ffffff" stroke="none" x="472" y="503" width="20" height="10"/></g><g transform="translate(-158,-78) scale(1,1)"><path fill="none" stroke="#000000" d="M 472 503 L 492 503 L 492 513 L 472 513 L 472 503 Z Z" stroke-miterlimit="10"/></g><g transform="translate(-158,-78) scale(1,1)"><rect fill="#ffffff" stroke="none" x="472" y="523" width="20" height="10"/></g><g transform="translate(-158,-78) scale(1,1)"><path fill="none" stroke="#000000" d="M 472 523 L 492 523 L 492 533 L 472 533 L 472 523 Z Z" stroke-miterlimit="10"/></g><g transform="translate(-158,-78) scale(1,1)"><g><path fill="none" stroke="none"/><text fill="#000000" stroke="none" font-family="Arial" font-size="13px" font-style="normal" font-weight="bold" text-decoration="none" x="504.7900390625" y="514">Веб-сервис</text></g></g><g transform="translate(-158,-78) scale(1,1)"><rect fill="#ffffff" stroke="none" x="528" y="541" width="14" height="14"/></g><g transform="translate(-158,-78) scale(1,1)"><path fill="none" stroke="#000000" d="M 528 541 L 542 541 L 542 555 L 528 555 L 528 541 Z Z" stroke-miterlimit="10"/></g><g transform="translate(-158,-78) scale(1,1)"><g><path fill="none" stroke="none"/><text fill="#000000" stroke="none" font-family="Arial" font-size="13px" font-style="normal" font-weight="normal" text-decoration="none" x="471.87646484375" y="570.5">8080: 8080Type</text></g></g></g></svg>