<svg version="1.1" xmlns="http://www.w3.org/2000/svg" xmlns:xlink="http://www.w3.org/1999/xlink" width="557" height="356"><defs/><g><text fill="#eeeeee" stroke="none" font-family="Arial" font-size="24px" font-style="normal" font-weight="normal" text-decoration="none" x="0" y="0">UNREGISTERED</text><text fill="#eeeeee" stroke="none" font-family="Arial" font-size="24px" font-style="normal" font-weight="normal" text-decoration="none" x="0" y="30">UNREGISTERED</text><text fill="#eeeeee" stroke="none" font-family="Arial" font-size="24px" font-style="normal" font-weight="normal" text-decoration="none" x="0" y="60">UNREGISTERED</text><text fill="#eeeeee" stroke="none" font-family="Arial" font-size="24px" font-style="normal" font-weight="normal" text-decoration="none" x="0" y="90">UNREGISTERED</text><text fill="#eeeeee" stroke="none" font-family="Arial" font-size="24px" font-style="normal" font-weight="normal" text-decoration="none" x="0" y="120">UNREGISTERED</text><text fill="#eeeeee" stroke="none" font-family="Arial" font-size="24px" font-style="normal" font-weight="normal" text-decoration="none" x="0" y="150">UNREGISTERED</text><text fill="#eeeeee" stroke="none" font-family="Arial" font-size="24px" font-style="normal" font-weight="normal" text-decoration="none" x="0" y="180">UNREGISTERED</text><text fill="#eeeeee" stroke="none" font-family="Arial" font-size="24px" font-style="normal" font-weight="normal" text-decoration="none" x="0" y="210">UNREGISTERED</text><text fill="#eeeeee" stroke="none" font-family="Arial" font-size="24px" font-style="normal" font-weight="normal" text-decoration="none" x="0" y="240">UNREGISTERED</text><text fill="#eeeeee" stroke="none" font-family="Arial" font-size="24px" font-style="normal" font-weight="normal" text-decoration="none" x="0" y="270">UNREGISTERED</text><text fill="#eeeeee" stroke="none" font-family="Arial" font-size="24px" font-style="normal" font-weight="normal" text-decoration="none" x="0" y="300">UNREGISTERED</text><text fill="#eeeeee" stroke="none" font-family="Arial" font-size="24px" font-style="normal" font-weight="normal" text-decoration="none" x="0" y="330">UNREGISTERED</text><text fill="#eeeeee" stroke="none" font-family="Arial" font-size="24px" font-style="normal" font-weight="normal" text-decoration="none" x="200" y="0">UNREGISTERED</text><text fill="#eeeeee" stroke="none" font-family="Arial" font-size="24px" font-style="normal" font-weight="normal" text-decoration="none" x="200" y="30">UNREGISTERED</text><text fill="#eeeeee" stroke="none" font-family="Arial" font-size="24px" font-style="normal" font-weight="normal" text-decoration="none" x="200" y="60">UNREGISTERED</text><text fill="#eeeeee" stroke="none" font-family="Arial" font-size="24px" font-style="normal" font-weight="normal" text-decoration="none" x="200" y="90">UNREGISTERED</text><text fill="#eeeeee" stroke="none" font-family="Arial" font-size="24px" font-style="normal" font-weight="normal" text-decoration="none" x="200" y="120">UNREGISTERED</text><text fill="#eeeeee" stroke="none" font-family="Arial" font-size="24px" font-style="normal" font-weight="normal" text-decoration="none" x="200" y="150">UNREGISTERED</text><text fill="#eeeeee" stroke="none" font-family="Arial" font-size="24px" font-style="normal" font-weight="normal" text-decoration="none" x="200" y="180">UNREGISTERED</text><text fill="#eeeeee" stroke="none" font-family="Arial" font-size="24px" font-style="normal" font-weight="normal" text-decoration="none" x="200" y="210">UNREGISTERED</text><text fill="#eeeeee" stroke="none" font-family="Arial" font-size="24px" font-style="normal" font-weight="normal" text-decoration="none" x="200" y="240">UNREGISTERED</text><text fill="#eeeeee" stroke="none" font-family="Arial" font-size="24px" font-style="normal" font-weight="normal" text-decoration="none" x="200" y="270">UNREGISTERED</text><text fill="#eeeeee" stroke="none" font-family="Arial" font-size="24px" font-style="normal" font-weight="normal" text-decoration="none" x="200" y="300">UNREGISTERED</text><text fill="#eeeeee" stroke="none" font-family="Arial" font-size="24px" font-style="normal" font-weight="normal" text-decoration="none" x="200" y="330">UNREGISTERED</text><text fill="#eeeeee" stroke="none" font-family="Arial" font-size="24px" font-style="normal" font-weight="normal" text-decoration="none" x="400" y="0">UNREGISTERED</text><text fill="#eeeeee" stroke="none" font-family="Arial" font-size="24px" font-style="normal" font-weight="normal" text-decoration="none" x="400" y="30">UNREGISTERED</text><text fill="#eeeeee" stroke="none" font-family="Arial" font-size="24px" font-style="normal" font-weight="normal" text-decoration="none" x="400" y="60">UNREGISTERED</text><text fill="#eeeeee" stroke="none" font-family="Arial" font-size="24px" font-style="normal" font-weight="normal" text-decoration="none" x="400" y="90">UNREGISTERED</text><text fill="#eeeeee" stroke="none" font-family="Arial" font-size="24px" font-style="normal" font-weight="normal" text-decoration="none" x="400" y="120">UNREGISTERED</text><text fill="#eeeeee" stroke="none" font-family="Arial" font-size="24px" font-style="normal" font-weight="normal" text-decoration="none" x="400" y="150">UNREGISTERED</text><text fill="#eeeeee" stroke="none" font-family="Arial" font-size="24px" font-style="normal" font-weight="normal" text-decoration="none" x="400" y="180">UNREGISTERED</text><text fill="#eeeeee" stroke="none" font-family="Arial" font-size="24px" font-style="normal" font-weight="normal" text-decoration="none" x="400" y="210">UNREGISTERED</text><text fill="#eeeeee" stroke="none" font-family="Arial" font-size="24px" font-style="normal" font-weight="normal" text-decoration="none" x="400" y="240">UNREGISTERED</text><text fill="#eeeeee" stroke="none" font-family="Arial" font-size="24px" font-style="normal" font-weight="normal" text-decoration="none" x="400" y="270">UNREGISTERED</text><text fill="#eeeeee" stroke="none" font-family="Arial" font-size="24px" font-style="normal" font-weight="normal" text-decoration="none" x="400" y="300">UNREGISTERED</text><text fill="#eeeeee" stroke="none" font-family="Arial" font-size="24px" font-style="normal" font-weight="normal" text-decoration="none" x="400" y="330">UNREGISTERED</text><g transform="translate(-438,-470) scale(1,1)"><path fill="#C0C0C0" stroke="none" d="M 967 723.5 C 967 716.59644 972.59644 711 979.5 711 C 986.40356 711 992 716.59644 992 723.5 C 992 730.40356 986.40356 736 979.5 736 C 972.59644 736 967 730.40356 967 723.5 Z" opacity="0.2"/></g><g transform="translate(-438,-470) scale(1,1)"><path fill="none" stroke="#000000" d="M 960 716.5 C 960 709.59644 965.59644 704 972.5 704 C 979.40356 704 985 709.59644 985 716.5 C 985 723.40356 979.40356 729 972.5 729 C 965.59644 729 960 723.40356 960 716.5 Z" stroke-miterlimit="10"/></g><g transform="translate(-438,-470) scale(1,1)"><path fill="#000000" stroke="none" d="M 965 716.5 C 965 712.357864 968.357864 709 972.5 709 C 976.642136 709 980 712.357864 980 716.5 C 980 720.642136 976.642136 724 972.5 724 C 968.357864 724 965 720.642136 965 716.5 Z"/></g><g transform="translate(-438,-470) scale(1,1)"><path fill="#C0C0C0" stroke="none" d="M 455 496.5 C 455 491.2532944 459.2532944 487 464.5 487 C 469.7467056 487 474 491.2532944 474 496.5 C 474 501.7467056 469.7467056 506 464.5 506 C 459.2532944 506 455 501.7467056 455 496.5 Z" opacity="0.2"/></g><g transform="translate(-438,-470) scale(1,1)"><path fill="#000000" stroke="none" d="M 448 489.5 C 448 484.2532944 452.2532944 480 457.5 480 C 462.7467056 480 467 484.2532944 467 489.5 C 467 494.7467056 462.7467056 499 457.5 499 C 452.2532944 499 448 494.7467056 448 489.5 Z"/></g><g transform="translate(-438,-470) scale(1,1)"><path fill="#C0C0C0" stroke="none" d="M 553 575 L 627.71875 575 Q 637.71875 575 637.71875 585 L 637.71875 605 Q 637.71875 615 627.71875 615 L 553 615 Q 543 615 543 605 L 543 585 Q 543 575 553 575 Z" opacity="0.2"/></g><g transform="translate(-438,-470) scale(1,1)"><path fill="#ffffff" stroke="none" d="M 546 568 L 620.71875 568 Q 630.71875 568 630.71875 578 L 630.71875 598 Q 630.71875 608 620.71875 608 L 546 608 Q 536 608 536 598 L 536 578 Q 536 568 546 568 Z"/></g><g transform="translate(-438,-470) scale(1,1)"><path fill="none" stroke="#000000" d="M 546 568 L 620.71875 568 Q 630.71875 568 630.71875 578 L 630.71875 598 Q 630.71875 608 620.71875 608 L 546 608 Q 536 608 536 598 L 536 578 Q 536 568 546 568 Z" stroke-miterlimit="10"/></g><g transform="translate(-438,-470) scale(1,1)"><g><path fill="none" stroke="none"/><text fill="#000000" stroke="none" font-family="Arial" font-size="13px" font-style="normal" font-weight="bold" text-decoration="none" x="540.5" y="586">Заказ введен</text></g></g><g transform="translate(-438,-470) scale(1,1)"><path fill="#C0C0C0" stroke="none" d="M 801 783 L 884.33251953125 783 Q 894.33251953125 783 894.33251953125 793 L 894.33251953125 813 Q 894.33251953125 823 884.33251953125 823 L 801 823 Q 791 823 791 813 L 791 793 Q 791 783 801 783 Z" opacity="0.2"/></g><g transform="translate(-438,-470) scale(1,1)"><path fill="#ffffff" stroke="none" d="M 794 776 L 877.33251953125 776 Q 887.33251953125 776 887.33251953125 786 L 887.33251953125 806 Q 887.33251953125 816 877.33251953125 816 L 794 816 Q 784 816 784 806 L 784 786 Q 784 776 794 776 Z"/></g><g transform="translate(-438,-470) scale(1,1)"><path fill="none" stroke="#000000" d="M 794 776 L 877.33251953125 776 Q 887.33251953125 776 887.33251953125 786 L 887.33251953125 806 Q 887.33251953125 816 877.33251953125 816 L 794 816 Q 784 816 784 806 L 784 786 Q 784 776 794 776 Z" stroke-miterlimit="10"/></g><g transform="translate(-438,-470) scale(1,1)"><g><path fill="none" stroke="none"/><text fill="#000000" stroke="none" font-family="Arial" font-size="13px" font-style="normal" font-weight="bold" text-decoration="none" x="792.114990234375" y="794">Подтвержден</text></g></g><g transform="translate(-438,-470) scale(1,1)"><path fill="#C0C0C0" stroke="none" d="M 873 567 L 915.14892578125 567 Q 925.14892578125 567 925.14892578125 577 L 925.14892578125 597 Q 925.14892578125 607 915.14892578125 607 L 873 607 Q 863 607 863 597 L 863 577 Q 863 567 873 567 Z" opacity="0.2"/></g><g transform="translate(-438,-470) scale(1,1)"><path fill="#ffffff" stroke="none" d="M 866 560 L 908.14892578125 560 Q 918.14892578125 560 918.14892578125 570 L 918.14892578125 590 Q 918.14892578125 600 908.14892578125 600 L 866 600 Q 856 600 856 590 L 856 570 Q 856 560 866 560 Z"/></g><g transform="translate(-438,-470) scale(1,1)"><path fill="none" stroke="#000000" d="M 866 560 L 908.14892578125 560 Q 918.14892578125 560 918.14892578125 570 L 918.14892578125 590 Q 918.14892578125 600 908.14892578125 600 L 866 600 Q 856 600 856 590 L 856 570 Q 856 560 866 560 Z" stroke-miterlimit="10"/></g><g transform="translate(-438,-470) scale(1,1)"><g><path fill="none" stroke="none"/><text fill="#000000" stroke="none" font-family="Arial" font-size="13px" font-style="normal" font-weight="bold" text-decoration="none" x="864.114990234375" y="578">Удален</text></g></g><g transform="translate(-438,-470) scale(1,1)"><path fill="#C0C0C0" stroke="none" d="M 569 719 L 620.98779296875 719 Q 630.98779296875 719 630.98779296875 729 L 630.98779296875 749 Q 630.98779296875 759 620.98779296875 759 L 569 759 Q 559 759 559 749 L 559 729 Q 559 719 569 719 Z" opacity="0.2"/></g><g transform="translate(-438,-470) scale(1,1)"><path fill="#ffffff" stroke="none" d="M 562 712 L 613.98779296875 712 Q 623.98779296875 712 623.98779296875 722 L 623.98779296875 742 Q 623.98779296875 752 613.98779296875 752 L 562 752 Q 552 752 552 742 L 552 722 Q 552 712 562 712 Z"/></g><g transform="translate(-438,-470) scale(1,1)"><path fill="none" stroke="#000000" d="M 562 712 L 613.98779296875 712 Q 623.98779296875 712 623.98779296875 722 L 623.98779296875 742 Q 623.98779296875 752 613.98779296875 752 L 562 752 Q 552 752 552 742 L 552 722 Q 552 712 562 712 Z" stroke-miterlimit="10"/></g><g transform="translate(-438,-470) scale(1,1)"><g><path fill="none" stroke="none"/><text fill="#000000" stroke="none" font-family="Arial" font-size="13px" font-style="normal" font-weight="bold" text-decoration="none" x="560.114990234375" y="730">Оплачен</text></g></g><g transform="translate(-438,-470) scale(1,1)"><path fill="none" stroke="#000000" d="M 632 587 L 855 581" stroke-miterlimit="10"/></g><g transform="translate(-438,-470) scale(1,1)"><path fill="none" stroke="#000000" d="M 844.9542212404548 585.481331176589 L 855 581 L 844.7277820531169 577.0653413805346" stroke-miterlimit="10"/></g><g transform="translate(-438,-470) scale(1,1)"><g><path fill="none" stroke="none"/><text fill="#000000" stroke="none" font-family="Arial" font-size="13px" font-style="normal" font-weight="normal" text-decoration="none" x="718.5" y="574">Отмена</text></g></g><g transform="translate(-438,-470) scale(1,1)"><path fill="none" stroke="#000000" d="M 584 609 L 586 711" stroke-miterlimit="10"/></g><g transform="translate(-438,-470) scale(1,1)"><path fill="none" stroke="#000000" d="M 581.592061382689 700.9218018899201 L 586 711 L 590.0094789384244 700.7567544868664" stroke-miterlimit="10"/></g><g transform="translate(-438,-470) scale(1,1)"><g><path fill="none" stroke="none"/><text fill="#000000" stroke="none" font-family="Arial" font-size="13px" font-style="normal" font-weight="normal" text-decoration="none" x="518.5" y="659">Оплата</text></g></g><g transform="translate(-438,-470) scale(1,1)"><path fill="none" stroke="#000000" d="M 625 742 L 783 783" stroke-miterlimit="10"/></g><g transform="translate(-438,-470) scale(1,1)"><path fill="none" stroke="#000000" d="M 772.1057980580738 784.52196059362 L 783 783 L 774.220447274801 776.3728245876957" stroke-miterlimit="10"/></g><g transform="translate(-438,-470) scale(1,1)"><g><path fill="none" stroke="none"/><text fill="#000000" stroke="none" font-family="Arial" font-size="13px" font-style="normal" font-weight="normal" text-decoration="none" x="653.5" y="752">Оплата пройдена</text></g></g><g transform="translate(-438,-470) scale(1,1)"><path fill="none" stroke="#000000" d="M 871 775 L 959 724" stroke-miterlimit="10"/></g><g transform="translate(-438,-470) scale(1,1)"><path fill="none" stroke="#000000" d="M 952.31798752602 732.7378892930487 L 959 724 L 948.0964828953036 725.4537244400478" stroke-miterlimit="10"/></g><g transform="translate(-438,-470) scale(1,1)"><g><path fill="none" stroke="none"/><text fill="#000000" stroke="none" font-family="Arial" font-size="13px" font-style="normal" font-weight="normal" text-decoration="none" x="848.538330078125" y="739">Еда куплена</text></g></g><g transform="translate(-438,-470) scale(1,1)"><path fill="none" stroke="#000000" d="M 900 601 L 964 703" stroke-miterlimit="10"/></g><g transform="translate(-438,-470) scale(1,1)"><path fill="none" stroke="#000000" d="M 955.0328985506347 696.6288861572884 L 964 703 L 962.164359559459 692.1542439556732" stroke-miterlimit="10"/></g><g transform="translate(-438,-470) scale(1,1)"><g><path fill="none" stroke="none"/><text fill="#000000" stroke="none" font-family="Arial" font-size="13px" font-style="normal" font-weight="normal" text-decoration="none" x="853.721923828125" y="666">Еда  не куплена</text></g></g><g transform="translate(-438,-470) scale(1,1)"><path fill="none" stroke="#000000" d="M 468 498 L 556 567" stroke-miterlimit="10"/></g><g transform="translate(-438,-470) scale(1,1)"><path fill="none" stroke="#000000" d="M 545.405194822381 564.0419426563541 L 556 567 L 550.600003820386 557.4166790067245" stroke-miterlimit="10"/></g><g transform="translate(-438,-470) scale(1,1)"><g><path fill="none" stroke="none"/><text fill="#000000" stroke="none" font-family="Arial" font-size="13px" font-style="normal" font-weight="normal" text-decoration="none" x="494.5" y="515">Места добавлены в корзину</text></g></g></g></svg>